<svg width="109" height="54" viewBox="0 0 109 54" fill="none" xmlns="http://www.w3.org/2000/svg">
<g clip-path="url(#clip0_3_1126)">
<path d="M102.085 9.27709C102.234 9.60927 102.393 9.93269 102.48 10.2917C102.787 11.5745 102.626 12.8728 102.115 14.0997C104.181 14.5071 106.036 15.4413 107.395 16.8353L107.603 17.0562C108.571 14.9873 108.89 12.7692 108.364 10.5854C108.089 9.43904 107.591 8.3854 106.928 7.42433C106.031 8.50482 104.258 9.17214 102.085 9.27709Z" fill="url(#paint0_linear_3_1126)"/>
<path d="M85.4803 6.92425C86.7823 6.01696 88.3482 5.30356 90.1189 4.91621C90.6338 4.804 91.143 4.75103 91.6514 4.69745C91.3141 3.91192 91.2551 2.58288 91.7149 1.80922C90.81 1.89154 89.8918 2.03136 88.97 2.23321C86.34 2.80899 83.9829 3.82619 81.9978 5.13221C83.2702 5.28274 84.3573 5.75589 85.1232 6.56167C85.2194 6.66257 85.341 6.73927 85.4266 6.8515L85.4803 6.92425Z" fill="url(#paint1_linear_3_1126)"/>
<path d="M89.606 19.842C86.5644 19.5611 83.9953 18.2306 82.6009 16.2193C82.193 16.5807 81.7667 16.9345 81.2972 17.2608C79.7106 18.371 78.0048 19.0995 76.3848 19.4521C78.5224 23.357 83.407 25.8324 89.0978 26.0664C89.0807 26.019 89.0514 25.9807 89.0367 25.9333C88.3789 23.8685 88.6645 21.7408 89.606 19.842Z" fill="url(#paint2_linear_3_1126)"/>
<path fill-rule="evenodd" clip-rule="evenodd" d="M95.2422 2.93142C95.3907 2.27801 96.2081 1.84627 97.3397 1.69314C98.1498 1.58389 99.1157 1.61204 100.137 1.82464C102.33 2.28171 103.971 3.38644 104.11 4.41752C104.127 4.53703 104.135 4.65712 104.108 4.77505C103.873 5.79912 102.022 6.28978 99.8378 5.98194C99.6306 5.95273 99.4239 5.92626 99.2119 5.88186C97.8457 5.59787 96.7059 5.05856 95.9956 4.44402C95.4313 3.95875 95.1306 3.42638 95.2422 2.93142ZM98.7196 8.30217C99.857 8.5391 100.956 8.60831 101.975 8.55916C103.993 8.46171 105.638 7.84176 106.471 6.83936C106.727 6.53156 106.932 6.20267 107.018 5.82775C107.523 3.61363 104.627 1.13114 100.55 0.282893C97.3459 -0.383582 94.3914 0.168773 93.0153 1.50711C92.6404 1.87119 92.3594 2.28232 92.2523 2.75618C92.1356 3.27068 92.2172 3.79912 92.44 4.31798C93.1734 6.0355 95.5899 7.65028 98.7196 8.30217Z" fill="url(#paint3_linear_3_1126)"/>
<path fill-rule="evenodd" clip-rule="evenodd" d="M78.5771 14.1532C77.529 14.8852 76.4094 15.3227 75.4286 15.4513C74.3877 15.5884 73.5042 15.378 73.0417 14.7767C72.148 13.6103 73.1825 11.4415 75.3485 9.93C75.9799 9.48828 76.6351 9.1652 77.2742 8.94017C78.8204 8.39259 80.2477 8.47954 80.8813 9.3059C81.7764 10.4728 80.7422 12.6443 78.5771 14.1532ZM84.267 6.99383C83.4022 6.08408 82.0993 5.62767 80.5822 5.60918C78.5783 5.5865 76.2383 6.30286 74.1139 7.78595C70.2128 10.5081 68.5587 14.6887 70.424 17.1236C71.6028 18.6616 73.9009 19.13 76.4171 18.5846C77.8822 18.2657 79.4248 17.6069 80.8599 16.6029C81.2841 16.3077 81.67 15.9879 82.0386 15.6611C85.0678 12.9879 86.2127 9.4361 84.5507 7.2647C84.4708 7.15978 84.357 7.08813 84.267 6.99383Z" fill="url(#paint4_linear_3_1126)"/>
<path fill-rule="evenodd" clip-rule="evenodd" d="M101.105 27.0381C98.749 27.7199 96.3623 26.974 95.1564 25.3589C94.897 25.0103 94.671 24.6355 94.5363 24.2111C93.8799 22.1479 95.0642 19.9268 97.2368 18.8183C97.3123 18.7804 97.3893 18.7457 97.4661 18.7105C97.7471 18.5802 98.038 18.4611 98.3499 18.3704C100.854 17.6415 103.416 18.5177 104.531 20.3459C104.694 20.6107 104.824 20.8942 104.92 21.1959C105.685 23.5918 103.975 26.2091 101.105 27.0381ZM108.491 20.284C108.133 19.1606 107.511 18.1776 106.708 17.3521C105.407 16.0184 103.61 15.1438 101.617 14.7989C100.041 14.5266 98.3499 14.5688 96.6665 15.0579C93.7463 15.9042 91.5452 17.8189 90.4102 20.1067C89.5476 21.8462 89.286 23.7956 89.8885 25.6875C89.902 25.7307 89.9289 25.7658 89.9446 25.809C91.4003 30.1044 96.6241 32.3929 101.708 30.9176C106.847 29.4275 109.886 24.6665 108.491 20.284Z" fill="url(#paint5_linear_3_1126)"/>
<path fill-rule="evenodd" clip-rule="evenodd" d="M40.7994 27.426L41.4927 23.7421H37.2116L38.5254 16.7526H43.8984L41.5884 29.0403H31.6483L28.2002 45.2159H22.0942L23.4504 37.8101H28.4769L29.1583 34.8063C26.7709 34.7999 24.383 34.7997 21.9956 34.7997C21.0192 34.7997 20.2896 35.242 19.7994 36.032C19.5797 36.3861 19.3719 36.8923 19.3059 37.311L17.5874 46.4522C17.3771 47.5708 18.1437 48.4835 19.3421 48.4835H32.3408L35.7243 32.7228H43.4378C44.6635 32.7228 45.8346 31.7672 46.0505 30.6182L48.9665 15.1008C49.1766 13.9823 48.4128 13.0694 47.2136 13.0694H36.4589C35.2306 13.0694 34.0624 14.0274 33.8461 15.1776L32.0145 24.9149C31.9283 25.3055 31.9305 25.8345 32.0203 26.2194C32.2144 27.0542 32.791 27.426 33.6774 27.426C36.0513 27.426 38.4253 27.426 40.7994 27.426ZM10.7479 11.1211L11.3625 7.90114H5.9565C4.72124 7.90114 3.52481 8.84798 3.30345 10.0099L0 27.3422H4.51638L6.551 16.6687H9.69082L10.1921 14.0357H7.05358L7.60786 11.1211H10.7479ZM33.6396 7.50138H29.5267L25.7757 27.173H29.8889L33.6396 7.50138ZM59.2043 21.7955L59.7955 18.6998H50.3992L49.1229 25.3952C48.9068 26.5285 49.7021 27.426 50.9057 27.426H64.021L66.4123 15.0991C66.632 13.9671 65.8343 13.0694 64.6332 13.0694H53.7257C52.4892 13.0694 51.2921 14.0146 51.07 15.1776L50.7692 16.7526H61.2684L59.8692 24.0789H53.2854L53.7216 21.7955H59.2043ZM16.5251 18.6998L15.9674 21.7955H24.5729L25.7791 15.1024C25.9728 14.0272 25.2938 13.0694 24.109 13.0694H13.8069C12.5998 13.0694 11.5132 14.0637 11.3129 15.176L9.47301 25.3936C9.2792 26.4694 9.95769 27.426 11.1431 27.426H23.5512L23.9385 25.32L24.2218 23.7421H14.3091L15.5676 16.7526H21.8961L21.5457 18.6998H16.5251ZM98.4559 34.293H93.6365L90.9539 48.6515H95.7759L97.8912 39.0392H104.251L102.139 48.6515H104.411C105.146 48.6515 105.882 48.6515 106.617 48.6515L108.922 36.3248C109.129 35.2121 108.374 34.293 107.178 34.293H100.796C99.953 34.293 99.1736 34.7712 98.6861 35.4068L98.1067 36.1618L98.4559 34.293ZM67.9842 37.999L68.2942 36.325C68.4195 35.6478 68.5451 34.9706 68.6683 34.293H56.0404C54.8236 34.293 53.6922 35.2671 53.4839 36.4004L52.7644 40.3157C52.7117 40.6032 52.5387 41.6501 52.6015 41.9017L52.6251 41.9187L52.647 41.9853C52.8794 42.6915 53.5156 43.1108 54.2883 43.1108H61.9904L61.643 45.0229H51.8508L51.5731 46.7874C51.4473 47.4628 51.3217 48.1386 51.199 48.8146H63.8268C65.0422 48.8146 66.1743 47.8442 66.3827 46.7118L67.4821 40.7415L67.4895 40.7224C67.5374 40.6006 67.5521 40.4228 67.5146 40.2982C67.4152 39.9678 66.9578 39.9246 66.6596 39.9246C63.6692 39.9246 60.6786 39.9246 57.6882 39.9246H57.4175L57.7707 37.999H67.9842ZM76.2444 29.2816H71.6246L70.8449 33.0236H75.4648L76.2444 29.2816ZM75.2035 34.293H70.6592L68.1308 48.8146H72.2829L75.2035 34.293ZM73.9944 50.2646L73.6912 51.9161C73.5668 52.5928 73.4417 53.2697 73.3187 53.9467H85.8855C87.1009 53.9467 88.2212 52.9715 88.4286 51.8411L91.2756 36.3255C91.4763 35.2314 90.7602 34.293 89.5691 34.293H79.0779C77.8626 34.293 76.7449 35.2739 76.538 36.4004L74.8587 45.5491C74.5736 46.9092 74.3638 48.6515 76.3659 48.6515C78.6804 48.6515 80.9947 48.6515 83.309 48.6515L83.9861 44.9659H79.8015L81.097 39.0392H86.3487L84.0874 50.2646H73.9944ZM41.721 39.9246L41.1279 43.0205H50.3152L51.5982 36.3238C51.8157 35.1878 51.0096 34.293 49.8067 34.293H38.8461C37.6079 34.293 36.3995 35.2353 36.176 36.402L34.2176 46.6213C33.9993 47.7597 34.8083 48.6503 36.0121 48.6503H49.2882L49.9461 44.9682H39.3926L40.7316 37.9781H46.948L46.575 39.9246H41.721Z" fill="white"/>
</g>
<defs>
<linearGradient id="paint0_linear_3_1126" x1="102.085" y1="12.2403" x2="108.616" y2="12.2403" gradientUnits="userSpaceOnUse">
<stop stop-color="#E5C57B"/>
<stop offset="0.139423" stop-color="#B29960"/>
<stop offset="0.399038" stop-color="#DBBC76"/>
<stop offset="0.514423" stop-color="#FDE5AE"/>
<stop offset="0.836538" stop-color="#9F8855"/>
<stop offset="1" stop-color="#7F6D44"/>
</linearGradient>
<linearGradient id="paint1_linear_3_1126" x1="81.9978" y1="4.36673" x2="91.7149" y2="4.36673" gradientUnits="userSpaceOnUse">
<stop stop-color="#E5C57B"/>
<stop offset="0.139423" stop-color="#B29960"/>
<stop offset="0.399038" stop-color="#DBBC76"/>
<stop offset="0.514423" stop-color="#FDE5AE"/>
<stop offset="0.836538" stop-color="#9F8855"/>
<stop offset="1" stop-color="#7F6D44"/>
</linearGradient>
<linearGradient id="paint2_linear_3_1126" x1="76.3848" y1="21.1429" x2="89.606" y2="21.1429" gradientUnits="userSpaceOnUse">
<stop stop-color="#E5C57B"/>
<stop offset="0.139423" stop-color="#B29960"/>
<stop offset="0.399038" stop-color="#DBBC76"/>
<stop offset="0.514423" stop-color="#FDE5AE"/>
<stop offset="0.836538" stop-color="#9F8855"/>
<stop offset="1" stop-color="#7F6D44"/>
</linearGradient>
<linearGradient id="paint3_linear_3_1126" x1="92.1992" y1="4.28703" x2="107.075" y2="4.28703" gradientUnits="userSpaceOnUse">
<stop stop-color="#E5C57B"/>
<stop offset="0.139423" stop-color="#B29960"/>
<stop offset="0.399038" stop-color="#DBBC76"/>
<stop offset="0.514423" stop-color="#FDE5AE"/>
<stop offset="0.836538" stop-color="#9F8855"/>
<stop offset="1" stop-color="#7F6D44"/>
</linearGradient>
<linearGradient id="paint4_linear_3_1126" x1="69.657" y1="12.2061" x2="85.3146" y2="12.2061" gradientUnits="userSpaceOnUse">
<stop stop-color="#E5C57B"/>
<stop offset="0.139423" stop-color="#B29960"/>
<stop offset="0.399038" stop-color="#DBBC76"/>
<stop offset="0.514423" stop-color="#FDE5AE"/>
<stop offset="0.836538" stop-color="#9F8855"/>
<stop offset="1" stop-color="#7F6D44"/>
</linearGradient>
<linearGradient id="paint5_linear_3_1126" x1="89.5613" y1="22.9986" x2="108.83" y2="22.9986" gradientUnits="userSpaceOnUse">
<stop stop-color="#E5C57B"/>
<stop offset="0.139423" stop-color="#B29960"/>
<stop offset="0.399038" stop-color="#DBBC76"/>
<stop offset="0.514423" stop-color="#FDE5AE"/>
<stop offset="0.836538" stop-color="#9F8855"/>
<stop offset="1" stop-color="#7F6D44"/>
</linearGradient>
<clipPath id="clip0_3_1126">
<rect width="109" height="54" fill="white"/>
</clipPath>
</defs>
</svg>
