<svg width="453" height="235" viewBox="0 0 453 235" fill="none" xmlns="http://www.w3.org/2000/svg">
<path d="M424.26 40.3725C424.879 41.8181 425.541 43.2256 425.904 44.7881C427.18 50.3705 426.51 56.0207 424.385 61.3598C432.97 63.1327 440.683 67.1984 446.331 73.2649L447.193 74.2261C451.218 65.2225 452.542 55.5695 450.358 46.0663C449.215 41.0773 447.142 36.492 444.39 32.3096C440.66 37.0117 433.294 39.9158 424.26 40.3725Z" fill="#F07F1C"/>
<path d="M355.253 30.1333C360.664 26.1849 367.172 23.0803 374.531 21.3946C376.671 20.9063 378.787 20.6758 380.9 20.4426C379.498 17.0241 379.253 11.2403 381.164 7.87346C377.403 8.23172 373.587 8.84019 369.756 9.71859C358.826 12.2243 349.03 16.651 340.78 22.3346C346.068 22.9897 350.586 25.0488 353.769 28.5554C354.169 28.9945 354.674 29.3283 355.03 29.8167L355.253 30.1333Z" fill="#F07F1C"/>
<path d="M372.399 86.3494C359.758 85.1272 349.081 79.3369 343.286 70.5842C341.591 72.1569 339.819 73.6964 337.868 75.1166C331.274 79.948 324.185 83.1182 317.452 84.6527C326.336 101.646 346.636 112.419 370.287 113.437C370.216 113.231 370.094 113.064 370.033 112.858C367.299 103.872 368.486 94.6126 372.399 86.3494Z" fill="#F07F1C"/>
<path fill-rule="evenodd" clip-rule="evenodd" d="M395.823 12.7571C396.44 9.91355 399.837 8.03471 404.54 7.36831C407.907 6.89285 411.921 7.01538 416.165 7.94058C425.281 9.92965 432.099 14.7373 432.678 19.2244C432.748 19.7445 432.781 20.2671 432.668 20.7803C431.694 25.2369 423.998 27.3722 414.922 26.0325C414.061 25.9054 413.202 25.7902 412.321 25.597C406.643 24.3611 401.906 22.0141 398.954 19.3397C396.609 17.2279 395.359 14.9111 395.823 12.7571ZM410.275 36.1298C415.002 37.1609 419.57 37.4621 423.805 37.2482C432.19 36.8241 439.027 34.1262 442.49 29.7639C443.552 28.4244 444.404 26.9931 444.762 25.3615C446.862 15.726 434.825 4.92257 417.884 1.23111C404.566 -1.66929 392.287 0.734477 386.568 6.55874C385.01 8.14314 383.842 9.93232 383.397 11.9945C382.912 14.2335 383.251 16.5332 384.177 18.7912C387.225 26.2656 397.268 33.2929 410.275 36.1298Z" fill="#F07F1C"/>
<path fill-rule="evenodd" clip-rule="evenodd" d="M326.564 61.5926C322.208 64.7783 317.555 66.6821 313.479 67.2418C309.153 67.8383 305.481 66.9229 303.559 64.3059C299.845 59.2301 304.144 49.7918 313.146 43.2139C315.77 41.2916 318.493 39.8856 321.149 38.9063C327.575 36.5233 333.507 36.9017 336.14 40.4979C339.86 45.5761 335.562 55.026 326.564 61.5926ZM350.211 30.4361C346.617 26.477 341.202 24.4908 334.897 24.4103C326.569 24.3116 316.844 27.4291 308.015 33.8833C291.802 45.7299 284.928 63.923 292.68 74.5194C297.579 81.2125 307.13 83.2511 317.587 80.8776C323.676 79.4898 330.087 76.6226 336.051 72.2535C337.814 70.9689 339.418 69.5768 340.95 68.1546C353.539 56.5212 358.297 41.0645 351.39 31.6149C351.058 31.1583 350.585 30.8465 350.211 30.4361Z" fill="#F07F1C"/>
<path fill-rule="evenodd" clip-rule="evenodd" d="M420.187 117.666C410.397 120.633 400.478 117.387 395.466 110.358C394.388 108.841 393.449 107.21 392.889 105.363C390.161 96.3844 395.083 86.7183 404.112 81.8945C404.426 81.7297 404.746 81.5785 405.065 81.4251C406.233 80.8581 407.442 80.34 408.738 79.9451C419.146 76.7732 429.792 80.5864 434.428 88.5423C435.102 89.6947 435.645 90.9286 436.045 92.2413C439.221 102.668 432.114 114.058 420.187 117.666ZM450.886 88.2728C449.396 83.384 446.81 79.1064 443.473 75.5139C438.069 69.7097 430.601 65.9037 422.315 64.4028C415.767 63.2176 408.738 63.4013 401.742 65.5296C389.606 69.2126 380.458 77.5451 375.741 87.5015C372.156 95.0715 371.069 103.555 373.573 111.788C373.629 111.976 373.741 112.129 373.806 112.317C379.856 131.01 401.566 140.969 422.694 134.549C444.05 128.064 456.681 107.345 450.886 88.2728Z" fill="#F07F1C"/>
<path fill-rule="evenodd" clip-rule="evenodd" d="M169.561 119.354L172.442 103.322H154.65L160.11 72.9049H182.44L172.84 126.379H131.529L117.199 196.773H91.8228L97.4588 164.544H118.349L121.181 151.472C111.259 151.444 101.335 151.443 91.4128 151.443C87.3551 151.443 84.3228 153.368 82.2856 156.806C81.3724 158.347 80.5088 160.55 80.2348 162.372L73.0927 202.153C72.2184 207.021 75.4045 210.993 80.3852 210.993H134.407L148.469 142.405H180.526C185.62 142.405 190.487 138.246 191.384 133.246L203.503 65.7166C204.376 60.8488 201.202 56.8761 196.218 56.8761H151.522C146.417 56.8761 141.562 61.0453 140.663 66.0505L133.051 108.426C132.693 110.126 132.702 112.428 133.075 114.103C133.882 117.736 136.278 119.354 139.962 119.354C149.828 119.354 159.694 119.354 169.561 119.354ZM44.6678 48.3972L47.2221 34.3846H24.755C19.6213 34.3846 14.649 38.5051 13.729 43.5614L0 118.989H18.7699L27.2257 72.5398H40.2747L42.3579 61.0814H29.3144L31.618 48.3972H44.6678ZM139.805 32.6449H122.712L107.123 118.253H124.217L139.805 32.6449ZM246.051 94.851L248.508 81.3788H209.457L204.153 110.516C203.255 115.448 206.56 119.354 211.562 119.354H266.069L276.007 65.709C276.92 60.7827 273.605 56.8761 268.613 56.8761H223.282C218.143 56.8761 213.168 60.9895 212.245 66.0505L210.995 72.9049H254.629L248.814 104.788H221.452L223.265 94.851H246.051ZM68.6777 81.3788L66.3601 94.851H102.124L107.137 65.7234C107.942 61.0443 105.12 56.8761 100.196 56.8761H57.3811C52.3641 56.8761 47.8484 61.203 47.0161 66.0438L39.3695 110.509C38.564 115.191 41.3838 119.354 46.3105 119.354H97.878L99.4877 110.189L100.665 103.322H59.4681L64.6982 72.9049H90.9993L89.5433 81.3788H68.6777ZM409.179 149.238H389.15L378.001 211.724H398.041L406.832 169.893H433.262L424.484 211.724H433.927C436.984 211.724 440.04 211.724 443.096 211.724L452.674 158.08C453.538 153.238 450.399 149.238 445.427 149.238H418.905C415.401 149.238 412.162 151.319 410.136 154.085L407.728 157.371L409.179 149.238ZM282.54 165.366L283.828 158.081C284.349 155.134 284.871 152.187 285.383 149.238H232.902C227.845 149.238 223.143 153.477 222.277 158.409L219.287 175.448C219.068 176.699 218.349 181.255 218.61 182.35L218.708 182.424L218.799 182.714C219.765 185.787 222.409 187.612 225.62 187.612H257.63L256.186 195.933H215.49L214.336 203.612C213.813 206.551 213.291 209.492 212.781 212.434H265.262C270.313 212.434 275.018 208.211 275.884 203.283L280.453 177.301L280.484 177.218C280.683 176.688 280.744 175.914 280.588 175.372C280.175 173.934 278.274 173.746 277.035 173.746C264.607 173.746 252.178 173.746 239.75 173.746H238.625L240.093 165.366H282.54ZM316.869 127.429H297.669L294.429 143.714H313.629L316.869 127.429ZM312.543 149.238H293.657L283.149 212.434H300.405L312.543 149.238ZM307.518 218.744L306.258 225.931C305.741 228.876 305.221 231.822 304.71 234.768H356.937C361.988 234.768 366.644 230.524 367.506 225.605L379.338 158.083C380.172 153.322 377.196 149.238 372.246 149.238H328.645C323.594 149.238 318.949 153.507 318.089 158.409L311.11 198.223C309.925 204.142 309.053 211.724 317.374 211.724C326.993 211.724 336.611 211.724 346.229 211.724L349.043 195.685H331.652L337.036 169.893H358.862L349.464 218.744H307.518ZM173.391 173.746L170.926 187.219H209.108L214.44 158.076C215.344 153.132 211.994 149.238 206.995 149.238H161.443C156.297 149.238 151.275 153.339 150.346 158.416L142.207 202.889C141.3 207.843 144.662 211.719 149.665 211.719H204.84L207.574 195.695H163.714L169.279 165.275H195.114L193.564 173.746H173.391Z" fill="white"/>
</svg>
