<svg xmlns="http://www.w3.org/2000/svg" version="1.1" xmlns:xlink="http://www.w3.org/1999/xlink" width="1000" height="1000"><g clip-path="url(#SvgjsClipPath1048)"><rect width="1000" height="1000" fill="#000000"></rect><g transform="matrix(20,0,0,20,0,0)"><svg xmlns="http://www.w3.org/2000/svg" version="1.1" xmlns:xlink="http://www.w3.org/1999/xlink" width="50" height="50"><svg width="50" height="50" viewBox="0 0 50 50" fill="none" xmlns="http://www.w3.org/2000/svg">
<rect width="50" height="50" rx="25" fill="black"></rect>
<path d="M35.1458 20.052C35.2751 20.3403 35.4131 20.621 35.4886 20.9326C35.7551 22.046 35.6153 23.1729 35.1718 24.2378C36.965 24.5914 38.575 25.4022 39.7546 26.6121L39.9351 26.8039C40.7753 25.0082 41.0521 23.083 40.5956 21.1876C40.3569 20.1926 39.9247 19.2781 39.3492 18.4439C38.5707 19.3817 37.0318 19.9609 35.1458 20.052Z" fill="url(#paint0_linear_194_12)"></path>
<path d="M20.7338 18.0099C21.8639 17.2224 23.223 16.6032 24.7599 16.267C25.2068 16.1696 25.6487 16.1236 26.09 16.0771C25.7972 15.3953 25.746 14.2418 26.1451 13.5703C25.3597 13.6418 24.5628 13.7631 23.7627 13.9383C21.48 14.4381 19.4341 15.3209 17.7112 16.4545C18.8156 16.5851 19.7591 16.9958 20.4239 17.6952C20.5074 17.7828 20.6129 17.8493 20.6872 17.9467L20.7338 18.0099Z" fill="url(#paint1_linear_194_12)"></path>
<path d="M24.3147 29.2218C21.6747 28.978 19.4449 27.8232 18.2346 26.0775C17.8806 26.3912 17.5106 26.6982 17.1031 26.9815C15.726 27.945 14.2454 28.5773 12.8394 28.8834C14.6947 32.2726 18.9343 34.4211 23.8736 34.6242C23.8587 34.5831 23.8333 34.5499 23.8205 34.5087C23.2496 32.7166 23.4975 30.8699 24.3147 29.2218Z" fill="url(#paint2_linear_194_12)"></path>
<path fill-rule="evenodd" clip-rule="evenodd" d="M29.2066 14.5443C29.3355 13.9772 30.0449 13.6025 31.0271 13.4696C31.7302 13.3747 32.5686 13.3992 33.455 13.5837C35.3584 13.9804 36.7827 14.9392 36.9033 15.8342C36.9181 15.9379 36.925 16.0421 36.9016 16.1445C36.6976 17.0333 35.0911 17.4592 33.1953 17.192C33.0155 17.1667 32.8361 17.1437 32.6521 17.1051C31.4663 16.8587 30.477 16.3906 29.8605 15.8572C29.3707 15.436 29.1097 14.9739 29.2066 14.5443ZM32.2248 19.2058C33.212 19.4115 34.1658 19.4716 35.0503 19.4289C36.8018 19.3443 38.2296 18.8062 38.9526 17.9362C39.1748 17.669 39.3527 17.3836 39.4273 17.0582C39.8657 15.1364 37.3521 12.9818 33.8135 12.2455C31.0325 11.6671 28.4681 12.1465 27.2737 13.3081C26.9483 13.6241 26.7044 13.9809 26.6115 14.3922C26.5102 14.8388 26.581 15.2974 26.7744 15.7478C27.411 17.2385 29.5083 18.64 32.2248 19.2058Z" fill="url(#paint3_linear_194_12)"></path>
<path fill-rule="evenodd" clip-rule="evenodd" d="M14.7422 24.2842C13.8325 24.9196 12.8607 25.2993 12.0095 25.4109C11.106 25.5299 10.3392 25.3473 9.93777 24.8254C9.16208 23.813 10.06 21.9306 11.9399 20.6187C12.488 20.2353 13.0566 19.9549 13.6114 19.7596C14.9534 19.2843 16.1922 19.3598 16.7421 20.077C17.519 21.0898 16.6214 22.9746 14.7422 24.2842ZM19.6807 18.0703C18.9301 17.2807 17.7993 16.8845 16.4825 16.8685C14.7432 16.8488 12.7122 17.4705 10.8684 18.7578C7.48243 21.1205 6.04676 24.749 7.66574 26.8624C8.68888 28.1973 10.6835 28.6038 12.8674 28.1304C14.1391 27.8537 15.478 27.2819 16.7236 26.4104C17.0917 26.1542 17.4267 25.8766 17.7466 25.593C20.3758 23.2728 21.3695 20.19 19.927 18.3054C19.8576 18.2143 19.7588 18.1521 19.6807 18.0703Z" fill="url(#paint4_linear_194_12)"></path>
<path fill-rule="evenodd" clip-rule="evenodd" d="M34.2952 35.4676C32.2503 36.0594 30.1788 35.412 29.1321 34.0102C28.907 33.7076 28.7108 33.3823 28.5939 33.014C28.0242 31.2232 29.0521 29.2954 30.9378 28.3333C31.0034 28.3004 31.0702 28.2703 31.1368 28.2397C31.3807 28.1266 31.6332 28.0233 31.9039 27.9445C34.0774 27.3119 36.301 28.0724 37.2688 29.6592C37.4103 29.889 37.5231 30.1351 37.6064 30.3969C38.2704 32.4764 36.7862 34.7481 34.2952 35.4676ZM40.7059 29.6054C40.3952 28.6304 39.8553 27.7772 39.1583 27.0607C38.0291 25.9031 36.4694 25.144 34.7396 24.8447C33.3717 24.6083 31.9039 24.6449 30.4428 25.0695C27.9083 25.804 25.9978 27.4659 25.0127 29.4516C24.264 30.9613 24.0369 32.6533 24.5599 34.2954C24.5716 34.3329 24.595 34.3634 24.6086 34.4009C25.8721 38.129 30.406 40.1153 34.8186 38.8348C39.279 37.5415 41.9167 33.4092 40.7059 29.6054Z" fill="url(#paint5_linear_194_12)"></path>
<defs>
<linearGradient id="paint0_linear_194_12" x1="35.1458" y1="22.6239" x2="40.8143" y2="22.6239" gradientUnits="userSpaceOnUse">
<stop stop-color="#E5C57B"></stop>
<stop offset="0.139423" stop-color="#B29960"></stop>
<stop offset="0.399038" stop-color="#DBBC76"></stop>
<stop offset="0.514423" stop-color="#FDE5AE"></stop>
<stop offset="0.836538" stop-color="#9F8855"></stop>
<stop offset="1" stop-color="#7F6D44"></stop>
</linearGradient>
<linearGradient id="paint1_linear_194_12" x1="17.7112" y1="15.7901" x2="26.1451" y2="15.7901" gradientUnits="userSpaceOnUse">
<stop stop-color="#E5C57B"></stop>
<stop offset="0.139423" stop-color="#B29960"></stop>
<stop offset="0.399038" stop-color="#DBBC76"></stop>
<stop offset="0.514423" stop-color="#FDE5AE"></stop>
<stop offset="0.836538" stop-color="#9F8855"></stop>
<stop offset="1" stop-color="#7F6D44"></stop>
</linearGradient>
<linearGradient id="paint2_linear_194_12" x1="12.8394" y1="30.3509" x2="24.3147" y2="30.3509" gradientUnits="userSpaceOnUse">
<stop stop-color="#E5C57B"></stop>
<stop offset="0.139423" stop-color="#B29960"></stop>
<stop offset="0.399038" stop-color="#DBBC76"></stop>
<stop offset="0.514423" stop-color="#FDE5AE"></stop>
<stop offset="0.836538" stop-color="#9F8855"></stop>
<stop offset="1" stop-color="#7F6D44"></stop>
</linearGradient>
<linearGradient id="paint3_linear_194_12" x1="26.5654" y1="15.7209" x2="39.4768" y2="15.7209" gradientUnits="userSpaceOnUse">
<stop stop-color="#E5C57B"></stop>
<stop offset="0.139423" stop-color="#B29960"></stop>
<stop offset="0.399038" stop-color="#DBBC76"></stop>
<stop offset="0.514423" stop-color="#FDE5AE"></stop>
<stop offset="0.836538" stop-color="#9F8855"></stop>
<stop offset="1" stop-color="#7F6D44"></stop>
</linearGradient>
<linearGradient id="paint4_linear_194_12" x1="7.00003" y1="22.5942" x2="20.59" y2="22.5942" gradientUnits="userSpaceOnUse">
<stop stop-color="#E5C57B"></stop>
<stop offset="0.139423" stop-color="#B29960"></stop>
<stop offset="0.399038" stop-color="#DBBC76"></stop>
<stop offset="0.514423" stop-color="#FDE5AE"></stop>
<stop offset="0.836538" stop-color="#9F8855"></stop>
<stop offset="1" stop-color="#7F6D44"></stop>
</linearGradient>
<linearGradient id="paint5_linear_194_12" x1="24.2759" y1="31.9616" x2="41.0001" y2="31.9616" gradientUnits="userSpaceOnUse">
<stop stop-color="#E5C57B"></stop>
<stop offset="0.139423" stop-color="#B29960"></stop>
<stop offset="0.399038" stop-color="#DBBC76"></stop>
<stop offset="0.514423" stop-color="#FDE5AE"></stop>
<stop offset="0.836538" stop-color="#9F8855"></stop>
<stop offset="1" stop-color="#7F6D44"></stop>
</linearGradient>
<clipPath id="SvgjsClipPath1048"><rect width="1000" height="1000" x="0" y="0" rx="500" ry="500"></rect></clipPath></defs>
</svg></svg></g></g></svg>